<mxfile host="app.diagrams.net" agent="Mozilla/5.0 (Macintosh; Intel Mac OS X 10_15_7) AppleWebKit/537.36 (KHTML, like Gecko) Chrome/134.0.0.0 Safari/537.36" version="26.2.14">
  <diagram name="第 1 页" id="ib4GrtL0Vr4PbU2AfSvT">
    <mxGraphModel dx="679" dy="459" grid="1" gridSize="10" guides="1" tooltips="1" connect="1" arrows="1" fold="1" page="1" pageScale="1" pageWidth="827" pageHeight="1169" math="0" shadow="0">
      <root>
        <mxCell id="0" />
        <mxCell id="1" parent="0" />
        <mxCell id="mtRHpkaNLtio4RJ1GgYN-6" style="edgeStyle=orthogonalEdgeStyle;rounded=0;orthogonalLoop=1;jettySize=auto;html=1;entryX=0;entryY=0;entryDx=0;entryDy=0;exitX=0;exitY=1;exitDx=0;exitDy=0;curved=1;" edge="1" parent="1" source="mtRHpkaNLtio4RJ1GgYN-2" target="mtRHpkaNLtio4RJ1GgYN-3">
          <mxGeometry relative="1" as="geometry">
            <Array as="points">
              <mxPoint x="144" y="120" />
              <mxPoint x="144" y="120" />
            </Array>
          </mxGeometry>
        </mxCell>
        <mxCell id="mtRHpkaNLtio4RJ1GgYN-7" value="AR.fire" style="edgeLabel;html=1;align=center;verticalAlign=middle;resizable=0;points=[];" vertex="1" connectable="0" parent="mtRHpkaNLtio4RJ1GgYN-6">
          <mxGeometry y="-1" relative="1" as="geometry">
            <mxPoint x="7" y="53" as="offset" />
          </mxGeometry>
        </mxCell>
        <mxCell id="mtRHpkaNLtio4RJ1GgYN-12" style="edgeStyle=orthogonalEdgeStyle;rounded=0;orthogonalLoop=1;jettySize=auto;html=1;exitX=1;exitY=0.5;exitDx=0;exitDy=0;entryX=0;entryY=0.5;entryDx=0;entryDy=0;curved=1;" edge="1" parent="1" source="mtRHpkaNLtio4RJ1GgYN-2" target="mtRHpkaNLtio4RJ1GgYN-10">
          <mxGeometry relative="1" as="geometry" />
        </mxCell>
        <mxCell id="mtRHpkaNLtio4RJ1GgYN-13" value="AW.fire" style="edgeLabel;html=1;align=center;verticalAlign=middle;resizable=0;points=[];" vertex="1" connectable="0" parent="mtRHpkaNLtio4RJ1GgYN-12">
          <mxGeometry x="-0.0619" y="2" relative="1" as="geometry">
            <mxPoint x="1" y="2" as="offset" />
          </mxGeometry>
        </mxCell>
        <mxCell id="mtRHpkaNLtio4RJ1GgYN-2" value="s_chk_idle" style="ellipse;whiteSpace=wrap;html=1;fillColor=#dae8fc;strokeColor=#6c8ebf;" vertex="1" parent="1">
          <mxGeometry x="130" y="130" width="100" height="50" as="geometry" />
        </mxCell>
        <mxCell id="mtRHpkaNLtio4RJ1GgYN-8" style="edgeStyle=orthogonalEdgeStyle;rounded=0;orthogonalLoop=1;jettySize=auto;html=1;exitX=1;exitY=0;exitDx=0;exitDy=0;entryX=1;entryY=1;entryDx=0;entryDy=0;curved=0;" edge="1" parent="1" source="mtRHpkaNLtio4RJ1GgYN-3" target="mtRHpkaNLtio4RJ1GgYN-2">
          <mxGeometry relative="1" as="geometry">
            <Array as="points">
              <mxPoint x="216" y="210" />
              <mxPoint x="216" y="210" />
            </Array>
          </mxGeometry>
        </mxCell>
        <mxCell id="mtRHpkaNLtio4RJ1GgYN-9" value="R.fire &amp;amp;&amp;amp; R.last" style="edgeLabel;html=1;align=center;verticalAlign=middle;resizable=0;points=[];" vertex="1" connectable="0" parent="mtRHpkaNLtio4RJ1GgYN-8">
          <mxGeometry x="0.0135" y="1" relative="1" as="geometry">
            <mxPoint x="5" y="1" as="offset" />
          </mxGeometry>
        </mxCell>
        <mxCell id="mtRHpkaNLtio4RJ1GgYN-3" value="s_chk_rdata" style="ellipse;whiteSpace=wrap;html=1;fillColor=#fff2cc;strokeColor=#d6b656;" vertex="1" parent="1">
          <mxGeometry x="130" y="220" width="100" height="50" as="geometry" />
        </mxCell>
        <mxCell id="mtRHpkaNLtio4RJ1GgYN-17" style="edgeStyle=orthogonalEdgeStyle;rounded=0;orthogonalLoop=1;jettySize=auto;html=1;entryX=0.5;entryY=0;entryDx=0;entryDy=0;" edge="1" parent="1" source="mtRHpkaNLtio4RJ1GgYN-10" target="mtRHpkaNLtio4RJ1GgYN-16">
          <mxGeometry relative="1" as="geometry">
            <mxPoint x="314" y="245" as="targetPoint" />
          </mxGeometry>
        </mxCell>
        <mxCell id="mtRHpkaNLtio4RJ1GgYN-19" value="W.fire &amp;amp;&amp;amp; W.last" style="edgeLabel;html=1;align=center;verticalAlign=middle;resizable=0;points=[];" vertex="1" connectable="0" parent="mtRHpkaNLtio4RJ1GgYN-17">
          <mxGeometry x="0.1508" relative="1" as="geometry">
            <mxPoint y="-13" as="offset" />
          </mxGeometry>
        </mxCell>
        <mxCell id="mtRHpkaNLtio4RJ1GgYN-10" value="s_chk_wdata" style="ellipse;whiteSpace=wrap;html=1;fillColor=#d5e8d4;strokeColor=#82b366;" vertex="1" parent="1">
          <mxGeometry x="314" y="130" width="100" height="50" as="geometry" />
        </mxCell>
        <mxCell id="mtRHpkaNLtio4RJ1GgYN-22" style="rounded=0;orthogonalLoop=1;jettySize=auto;html=1;exitX=0;exitY=0.5;exitDx=0;exitDy=0;entryX=0.963;entryY=0.693;entryDx=0;entryDy=0;entryPerimeter=0;" edge="1" parent="1" source="mtRHpkaNLtio4RJ1GgYN-16" target="mtRHpkaNLtio4RJ1GgYN-2">
          <mxGeometry relative="1" as="geometry">
            <mxPoint x="180" y="180" as="targetPoint" />
          </mxGeometry>
        </mxCell>
        <mxCell id="mtRHpkaNLtio4RJ1GgYN-24" value="B.fire" style="edgeLabel;html=1;align=center;verticalAlign=middle;resizable=0;points=[];" vertex="1" connectable="0" parent="mtRHpkaNLtio4RJ1GgYN-22">
          <mxGeometry x="-0.0029" y="-1" relative="1" as="geometry">
            <mxPoint x="19" y="16" as="offset" />
          </mxGeometry>
        </mxCell>
        <mxCell id="mtRHpkaNLtio4RJ1GgYN-16" value="s_chk_resp" style="ellipse;whiteSpace=wrap;html=1;fillColor=#f8cecc;strokeColor=#b85450;" vertex="1" parent="1">
          <mxGeometry x="314" y="220" width="100" height="50" as="geometry" />
        </mxCell>
      </root>
    </mxGraphModel>
  </diagram>
</mxfile>
